<?xml version="1.0" encoding="UTF-8"?>
<svg width="32" height="32" viewBox="0 0 32 32" xmlns="http://www.w3.org/2000/svg">
  <defs>
    <linearGradient id="neonGradient" x1="0%" y1="0%" x2="100%" y2="100%">
      <stop offset="0%" style="stop-color:#FF00FF;stop-opacity:1" />
      <stop offset="100%" style="stop-color:#00FFFF;stop-opacity:1" />
    </linearGradient>
  </defs>
  <rect width="32" height="32" fill="#0A0A0C"/>
  <path d="M16 4C19 4 21.5 6 21.5 9C21.5 12 19 14 16 14C13 14 10.5 12 10.5 9C10.5 6 13 4 16 4ZM24 16.5C23 15.5 21.5 14 18.5 14H13.5C10.5 14 9 15.5 8.5 16.5L4 22V26C4 27 4.5 28 5.5 28H26.5C27.5 28 28 27 28 26V22L24 16.5Z" 
    fill="url(#neonGradient)"
    stroke="#00FFFF"
    stroke-width="1"
  />
  <circle cx="16" cy="9" r="3" fill="#0A0A0C"/>
</svg> 